<svg width="16" height="16" viewBox="0 0 16 16" fill="none" xmlns="http://www.w3.org/2000/svg">
<path d="M14 11C14 11.2533 13.86 11.4733 13.6467 11.5867L8.38 14.5467C8.27334 14.6267 8.14 14.6667 8 14.6667C7.86 14.6667 7.72667 14.6267 7.62 14.5467L2.35334 11.5867C2.24646 11.5305 2.15701 11.4461 2.09472 11.3427C2.03243 11.2393 1.99967 11.1207 2 11V5.00001C2 4.74668 2.14 4.52668 2.35334 4.41334L7.62 1.45334C7.72667 1.37334 7.86 1.33334 8 1.33334C8.14 1.33334 8.27334 1.37334 8.38 1.45334L13.6467 4.41334C13.86 4.52668 14 4.74668 14 5.00001V11ZM8 2.76668L6.74 3.48001L10.6667 5.74001L11.9733 5.00001L8 2.76668ZM4.02667 5.00001L8 7.23334L9.30667 6.50001L5.38667 4.23334L4.02667 5.00001ZM3.33334 10.6067L7.33334 12.86V8.38668L3.33334 6.14001V10.6067ZM12.6667 10.6067V6.14001L8.66667 8.38668V12.86L12.6667 10.6067V10.6067Z" fill="#B0B0B0"/>
</svg>
