<svg width="16" height="16" viewBox="0 0 16 16" fill="none" xmlns="http://www.w3.org/2000/svg">
<path d="M2.59998 5.2C2.86519 5.2 3.11955 5.09464 3.30708 4.9071C3.49462 4.71957 3.59998 4.46521 3.59998 4.2C3.59998 3.93478 3.49462 3.68043 3.30708 3.49289C3.11955 3.30535 2.86519 3.2 2.59998 3.2C2.33476 3.2 2.08041 3.30535 1.89287 3.49289C1.70533 3.68043 1.59998 3.93478 1.59998 4.2C1.59998 4.46521 1.70533 4.71957 1.89287 4.9071C2.08041 5.09464 2.33476 5.2 2.59998 5.2V5.2ZM5.59998 4.2C5.59998 4.04087 5.66319 3.88825 5.77571 3.77573C5.88823 3.66321 6.04085 3.6 6.19998 3.6H13.8C13.9591 3.6 14.1117 3.66321 14.2242 3.77573C14.3368 3.88825 14.4 4.04087 14.4 4.2C14.4 4.35913 14.3368 4.51174 14.2242 4.62426C14.1117 4.73678 13.9591 4.8 13.8 4.8H6.19998C6.04085 4.8 5.88823 4.73678 5.77571 4.62426C5.66319 4.51174 5.59998 4.35913 5.59998 4.2ZM6.19998 7.2C6.04085 7.2 5.88823 7.26321 5.77571 7.37573C5.66319 7.48826 5.59998 7.64087 5.59998 7.8C5.59998 7.95913 5.66319 8.11174 5.77571 8.22426C5.88823 8.33678 6.04085 8.4 6.19998 8.4H13.8C13.9591 8.4 14.1117 8.33678 14.2242 8.22426C14.3368 8.11174 14.4 7.95913 14.4 7.8C14.4 7.64087 14.3368 7.48826 14.2242 7.37573C14.1117 7.26321 13.9591 7.2 13.8 7.2H6.19998ZM6.19998 10.8C6.04085 10.8 5.88823 10.8632 5.77571 10.9757C5.66319 11.0883 5.59998 11.2409 5.59998 11.4C5.59998 11.5591 5.66319 11.7117 5.77571 11.8243C5.88823 11.9368 6.04085 12 6.19998 12H13.8C13.9591 12 14.1117 11.9368 14.2242 11.8243C14.3368 11.7117 14.4 11.5591 14.4 11.4C14.4 11.2409 14.3368 11.0883 14.2242 10.9757C14.1117 10.8632 13.9591 10.8 13.8 10.8H6.19998ZM3.59998 7.8C3.59998 8.06521 3.49462 8.31957 3.30708 8.5071C3.11955 8.69464 2.86519 8.8 2.59998 8.8C2.33476 8.8 2.08041 8.69464 1.89287 8.5071C1.70533 8.31957 1.59998 8.06521 1.59998 7.8C1.59998 7.53478 1.70533 7.28043 1.89287 7.09289C2.08041 6.90535 2.33476 6.8 2.59998 6.8C2.86519 6.8 3.11955 6.90535 3.30708 7.09289C3.49462 7.28043 3.59998 7.53478 3.59998 7.8ZM2.59998 12.4C2.86519 12.4 3.11955 12.2946 3.30708 12.1071C3.49462 11.9196 3.59998 11.6652 3.59998 11.4C3.59998 11.1348 3.49462 10.8804 3.30708 10.6929C3.11955 10.5054 2.86519 10.4 2.59998 10.4C2.33476 10.4 2.08041 10.5054 1.89287 10.6929C1.70533 10.8804 1.59998 11.1348 1.59998 11.4C1.59998 11.6652 1.70533 11.9196 1.89287 12.1071C2.08041 12.2946 2.33476 12.4 2.59998 12.4V12.4Z" fill="#B0B0B0"/>
</svg>
